<?xml version="1.0" standalone="no"?>
<!DOCTYPE svg PUBLIC "-//W3C//DTD SVG 20010904//EN"
 "http://www.w3.org/TR/2001/REC-SVG-20010904/DTD/svg10.dtd">
<svg version="1.0"
  xmlns="http://www.w3.org/2000/svg" width="700.000000pt" height="700.000000pt" viewBox="0 0 700.000000 700.000000" preserveAspectRatio="xMidYMid meet">
  <metadata>
Created by potrace 1.14, written by Peter Selinger 2001-2017
  </metadata>
  <g transform="translate(0.000000,700.000000) scale(0.100000,-0.100000)" fill="#000000" stroke="none">
    <path d="M3249 5405 c-3 -2 -283 -6 -623 -9 -496 -4 -621 -7 -627 -18 -5 -7
-9 -32 -9 -55 0 -55 17 -64 135 -74 118 -10 191 -38 258 -99 60 -54 110 -149
127 -239 20 -109 3 -2452 -19 -2596 -25 -159 -79 -274 -150 -322 -27 -18 -48
-23 -102 -23 -84 0 -116 -12 -130 -47 -17 -45 -2 -83 39 -100 33 -14 71 -14
327 -4 271 12 306 11 540 -9 356 -31 755 -37 905 -16 189 28 341 88 520 204
203 131 364 357 446 627 26 83 28 103 28 260 1 204 -11 259 -89 420 -86 179
-204 289 -417 390 -51 24 -134 57 -185 73 -139 46 -137 40 -36 108 106 71 220
177 278 259 99 140 136 258 137 435 0 325 -148 556 -456 709 -197 98 -372 131
-688 131 -113 0 -207 -2 -209 -5z m211 -201 c248 -47 422 -152 583 -354 119
-148 175 -310 164 -471 -16 -221 -123 -397 -291 -479 -125 -61 -157 -65 -526
-65 -184 0 -352 4 -373 8 -27 6 -41 15 -48 33 -33 88 -39 1064 -7 1186 25 95
57 130 146 155 57 16 236 9 352 -13z m115 -1559 c214 -10 462 -91 603 -196 77
-58 156 -160 212 -274 56 -116 76 -191 90 -338 25 -263 -44 -473 -215 -656
-106 -114 -215 -162 -409 -181 -167 -16 -586 -13 -669 5 -134 28 -220 85 -258
170 -17 37 -19 75 -18 490 0 494 12 859 29 918 23 79 18 77 297 72 137 -3 289
-7 338 -10z"/>
  </g>
</svg>
