<svg width="100" height="100" viewBox="0 0 100 100" fill="none"
  xmlns="http://www.w3.org/2000/svg">
  <rect width="100" height="100" rx="8" fill="#A8C0FF"/>
  <path d="M30.888 71.984L32.544 71.912C33.552 71.912 34.392 71.072 35.064 69.392C35.496 68.288 35.76 66.536 35.856 64.136C35.952 61.736 36 54.608 36 42.752V30.512C36 29.744 35.76 28.88 35.28 27.92C34.32 25.904 32.448 24.896 29.664 24.896C28.848 24.896 28.44 24.608 28.44 24.032C28.44 23.312 28.656 22.952 29.088 22.952L31.968 23.024L42.48 22.952L50.4 22.736C54.768 22.736 58.416 23.792 61.344 25.904C64.272 27.968 65.736 30.92 65.736 34.76C65.736 38.888 63.576 42.272 59.256 44.912C58.776 45.248 58.536 45.44 58.536 45.488C58.536 45.632 58.944 45.824 59.76 46.064C60.576 46.256 61.56 46.616 62.712 47.144C63.864 47.624 64.992 48.296 66.096 49.16C67.248 50.024 68.232 51.32 69.048 53.048C69.864 54.728 70.272 56.672 70.272 58.88C70.272 61.04 69.672 63.296 68.472 65.648C67.272 68 65.736 69.824 63.864 71.12C61.992 72.416 60.144 73.328 58.32 73.856C56.496 74.336 54.456 74.576 52.2 74.576C49.944 74.576 47.232 74.432 44.064 74.144C40.896 73.904 39.144 73.784 38.808 73.784L32.616 74.072H31.608C30.6 74.072 30.096 73.736 30.096 73.064C30.096 72.344 30.36 71.984 30.888 71.984ZM41.544 64.208L41.472 67.376C41.472 70.256 43.824 71.696 48.528 71.696H50.184C52.776 71.696 55.008 71.552 56.88 71.264C58.8 70.928 60.48 69.776 61.92 67.808C63.408 65.84 64.152 63.584 64.152 61.04C64.152 58.496 63.72 56.384 62.856 54.704C61.992 52.976 61.008 51.68 59.904 50.816C58.8 49.952 57.48 49.28 55.944 48.8C53.832 48.128 51.864 47.792 50.04 47.792L44.424 47.72L43.344 47.648C42.912 47.648 42.6 47.72 42.408 47.864C42.216 47.96 42.024 48.416 41.832 49.232C41.64 50.24 41.544 53.6 41.544 59.312V64.208ZM41.904 34.76C41.904 40.808 42.072 44.168 42.408 44.84C42.6 45.176 43.968 45.344 46.512 45.344H51.12C54.144 45.344 56.4 44.552 57.888 42.968C59.424 41.384 60.192 39.296 60.192 36.704C60.192 34.112 58.92 31.568 56.376 29.072C53.88 26.528 50.304 25.256 45.648 25.256C44.16 25.256 43.152 25.712 42.624 26.624C42.144 27.488 41.904 29.504 41.904 32.672V34.76Z" fill="black"/>
</svg>
